<svg xmlns="http://www.w3.org/2000/svg" xmlns:xlink="http://www.w3.org/1999/xlink" width="424pt" height="1016pt" viewBox="0.00 0.00 424.00 1016.00">
<g id="graph0" class="graph" transform="scale(1 1) rotate(0) translate(4 1011.78)">
<title>TravelDecisionEngine</title>
<polygon fill="white" stroke="none" points="-4,4 -4,-1011.78 419.65,-1011.78 419.65,4 -4,4"/>
<!-- Start -->
<g id="node1" class="node">
<title>Start</title>
<ellipse fill="none" stroke="black" cx="213.69" cy="-954.61" rx="111.21" ry="53.17"/>
<text xml:space="preserve" text-anchor="middle" x="213.69" y="-975.61" font-family="Helvetica,sans-Serif" font-size="14.00">User Inputs:</text>
<text xml:space="preserve" text-anchor="middle" x="213.69" y="-958.81" font-family="Helvetica,sans-Serif" font-size="14.00">Age=25</text>
<text xml:space="preserve" text-anchor="middle" x="213.69" y="-942.01" font-family="Helvetica,sans-Serif" font-size="14.00">Landscape=Mountains</text>
<text xml:space="preserve" text-anchor="middle" x="213.69" y="-925.21" font-family="Helvetica,sans-Serif" font-size="14.00">Budget=Medium</text>
</g>
<!-- Initialize -->
<g id="node2" class="node">
<title>Initialize</title>
<polygon fill="none" stroke="black" points="293.08,-864.43 134.29,-864.43 134.29,-828.43 293.08,-828.43 293.08,-864.43"/>
<text xml:space="preserve" text-anchor="middle" x="213.69" y="-842.23" font-family="Helvetica,sans-Serif" font-size="14.00">Initialize City Score = 0</text>
</g>
<!-- Start&#45;&gt;Initialize -->
<g id="edge1" class="edge">
<title>Start-&gt;Initialize</title>
<path fill="none" stroke="black" d="M213.69,-901.14C213.69,-892.5 213.69,-883.84 213.69,-876.07"/>
<polygon fill="black" stroke="black" points="217.19,-876.24 213.69,-866.24 210.19,-876.24 217.19,-876.24"/>
</g>
<!-- BudgetCheck -->
<g id="node3" class="node">
<title>BudgetCheck</title>
<polygon fill="none" stroke="black" points="213.69,-791.43 63.83,-749.83 213.69,-708.23 363.54,-749.83 213.69,-791.43"/>
<text xml:space="preserve" text-anchor="middle" x="213.69" y="-754.03" font-family="Helvetica,sans-Serif" font-size="14.00">Does Country Budget</text>
<text xml:space="preserve" text-anchor="middle" x="213.69" y="-737.23" font-family="Helvetica,sans-Serif" font-size="14.00">Match User Input?</text>
</g>
<!-- Initialize&#45;&gt;BudgetCheck -->
<g id="edge2" class="edge">
<title>Initialize-&gt;BudgetCheck</title>
<path fill="none" stroke="black" d="M213.69,-828.08C213.69,-820.88 213.69,-812.11 213.69,-803.09"/>
<polygon fill="black" stroke="black" points="217.19,-803.15 213.69,-793.15 210.19,-803.15 217.19,-803.15"/>
</g>
<!-- AddBudget -->
<g id="node4" class="node">
<title>AddBudget</title>
<polygon fill="none" stroke="black" points="129.86,-655.43 27.51,-655.43 27.51,-613.83 129.86,-613.83 129.86,-655.43"/>
<text xml:space="preserve" text-anchor="middle" x="78.69" y="-638.83" font-family="Helvetica,sans-Serif" font-size="14.00">+30 Points</text>
<text xml:space="preserve" text-anchor="middle" x="78.69" y="-622.03" font-family="Helvetica,sans-Serif" font-size="14.00">(Exact Match)</text>
</g>
<!-- BudgetCheck&#45;&gt;AddBudget -->
<g id="edge3" class="edge">
<title>BudgetCheck-&gt;AddBudget</title>
<path fill="none" stroke="black" d="M174.23,-718.98C162.59,-709.93 149.93,-699.83 138.55,-690.23 128.51,-681.76 117.83,-672.2 108.31,-663.47"/>
<polygon fill="black" stroke="black" points="110.77,-660.99 101.05,-656.78 106.03,-666.13 110.77,-660.99"/>
<text xml:space="preserve" text-anchor="middle" x="174.12" y="-677.63" font-family="Times,serif" font-size="14.00">Exact Match</text>
</g>
<!-- AddPartialBudget -->
<g id="node5" class="node">
<title>AddPartialBudget</title>
<polygon fill="none" stroke="black" points="279.65,-655.43 147.72,-655.43 147.72,-613.83 279.65,-613.83 279.65,-655.43"/>
<text xml:space="preserve" text-anchor="middle" x="213.69" y="-638.83" font-family="Helvetica,sans-Serif" font-size="14.00">+15 Points</text>
<text xml:space="preserve" text-anchor="middle" x="213.69" y="-622.03" font-family="Helvetica,sans-Serif" font-size="14.00">(Cheaper Country)</text>
</g>
<!-- BudgetCheck&#45;&gt;AddPartialBudget -->
<g id="edge4" class="edge">
<title>BudgetCheck-&gt;AddPartialBudget</title>
<path fill="none" stroke="black" d="M213.69,-707.96C213.69,-694.53 213.69,-679.8 213.69,-667.17"/>
<polygon fill="black" stroke="black" points="217.19,-667.32 213.69,-657.32 210.19,-667.32 217.19,-667.32"/>
<text xml:space="preserve" text-anchor="middle" x="237.01" y="-677.63" font-family="Times,serif" font-size="14.00">Cheaper</text>
</g>
<!-- SubBudget -->
<g id="node6" class="node">
<title>SubBudget</title>
<polygon fill="none" stroke="black" points="415.65,-655.43 297.72,-655.43 297.72,-613.83 415.65,-613.83 415.65,-655.43"/>
<text xml:space="preserve" text-anchor="middle" x="356.69" y="-638.83" font-family="Helvetica,sans-Serif" font-size="14.00">-20 Points</text>
<text xml:space="preserve" text-anchor="middle" x="356.69" y="-622.03" font-family="Helvetica,sans-Serif" font-size="14.00">(Too Expensive)</text>
</g>
<!-- BudgetCheck&#45;&gt;SubBudget -->
<g id="edge5" class="edge">
<title>BudgetCheck-&gt;SubBudget</title>
<path fill="none" stroke="black" d="M252.01,-718.5C273.92,-701.15 301.16,-679.58 322.37,-662.8"/>
<polygon fill="black" stroke="black" points="324.49,-665.58 330.16,-656.63 320.15,-660.09 324.49,-665.58"/>
<text xml:space="preserve" text-anchor="middle" x="348.53" y="-677.63" font-family="Times,serif" font-size="14.00">Too Expensive</text>
</g>
<!-- LandscapeCheck -->
<g id="node7" class="node">
<title>LandscapeCheck</title>
<polygon fill="none" stroke="black" points="213.69,-576.83 35.79,-535.23 213.69,-493.63 391.58,-535.23 213.69,-576.83"/>
<text xml:space="preserve" text-anchor="middle" x="213.69" y="-539.43" font-family="Helvetica,sans-Serif" font-size="14.00">Does Location Landscape</text>
<text xml:space="preserve" text-anchor="middle" x="213.69" y="-522.63" font-family="Helvetica,sans-Serif" font-size="14.00">Match?</text>
</g>
<!-- AddBudget&#45;&gt;LandscapeCheck -->
<g id="edge6" class="edge">
<title>AddBudget-&gt;LandscapeCheck</title>
<path fill="none" stroke="black" d="M106.66,-613.45C122.51,-602.01 142.86,-587.33 161.55,-573.84"/>
<polygon fill="black" stroke="black" points="163.57,-576.71 169.63,-568.02 159.47,-571.03 163.57,-576.71"/>
</g>
<!-- AddPartialBudget&#45;&gt;LandscapeCheck -->
<g id="edge7" class="edge">
<title>AddPartialBudget-&gt;LandscapeCheck</title>
<path fill="none" stroke="black" d="M213.69,-613.45C213.69,-606.08 213.69,-597.37 213.69,-588.51"/>
<polygon fill="black" stroke="black" points="217.19,-588.79 213.69,-578.79 210.19,-588.79 217.19,-588.79"/>
</g>
<!-- SubBudget&#45;&gt;LandscapeCheck -->
<g id="edge8" class="edge">
<title>SubBudget-&gt;LandscapeCheck</title>
<path fill="none" stroke="black" d="M327.06,-613.45C309.97,-601.81 287.95,-586.81 267.87,-573.13"/>
<polygon fill="black" stroke="black" points="269.99,-570.34 259.75,-567.61 266.05,-576.13 269.99,-570.34"/>
</g>
<!-- AddLandscape -->
<g id="node8" class="node">
<title>AddLandscape</title>
<polygon fill="none" stroke="black" points="205.96,-438.03 123.41,-438.03 123.41,-402.03 205.96,-402.03 205.96,-438.03"/>
<text xml:space="preserve" text-anchor="middle" x="164.69" y="-415.83" font-family="Helvetica,sans-Serif" font-size="14.00">+60 Points</text>
</g>
<!-- LandscapeCheck&#45;&gt;AddLandscape -->
<g id="edge9" class="edge">
<title>LandscapeCheck-&gt;AddLandscape</title>
<path fill="none" stroke="black" d="M197.64,-497.17C190.84,-481.44 183.04,-463.43 176.74,-448.87"/>
<polygon fill="black" stroke="black" points="180.04,-447.68 172.85,-439.89 173.61,-450.46 180.04,-447.68"/>
<text xml:space="preserve" text-anchor="middle" x="198.6" y="-463.03" font-family="Times,serif" font-size="14.00">Yes</text>
</g>
<!-- SubLandscape -->
<g id="node9" class="node">
<title>SubLandscape</title>
<polygon fill="none" stroke="black" points="303.2,-440.83 224.17,-440.83 224.17,-399.23 303.2,-399.23 303.2,-440.83"/>
<text xml:space="preserve" text-anchor="middle" x="263.69" y="-424.23" font-family="Helvetica,sans-Serif" font-size="14.00">-40 Points</text>
<text xml:space="preserve" text-anchor="middle" x="263.69" y="-407.43" font-family="Helvetica,sans-Serif" font-size="14.00">(Penalty)</text>
</g>
<!-- LandscapeCheck&#45;&gt;SubLandscape -->
<g id="edge10" class="edge">
<title>LandscapeCheck-&gt;SubLandscape</title>
<path fill="none" stroke="black" d="M230.06,-497.17C236.64,-482.26 244.13,-465.3 250.37,-451.18"/>
<polygon fill="black" stroke="black" points="253.41,-452.96 254.25,-442.4 247.01,-450.13 253.41,-452.96"/>
<text xml:space="preserve" text-anchor="middle" x="254.64" y="-463.03" font-family="Times,serif" font-size="14.00">No</text>
</g>
<!-- DurationCheck -->
<g id="node10" class="node">
<title>DurationCheck</title>
<polygon fill="none" stroke="black" points="213.69,-362.23 36.63,-320.63 213.69,-279.03 390.74,-320.63 213.69,-362.23"/>
<text xml:space="preserve" text-anchor="middle" x="213.69" y="-324.83" font-family="Helvetica,sans-Serif" font-size="14.00">Is User Duration &gt;=</text>
<text xml:space="preserve" text-anchor="middle" x="213.69" y="-308.03" font-family="Helvetica,sans-Serif" font-size="14.00">Minimum Required Days?</text>
</g>
<!-- AddLandscape&#45;&gt;DurationCheck -->
<g id="edge11" class="edge">
<title>AddLandscape-&gt;DurationCheck</title>
<path fill="none" stroke="black" d="M173.45,-401.62C178.13,-392.31 184.15,-380.35 190.09,-368.54"/>
<polygon fill="black" stroke="black" points="193.21,-370.12 194.58,-359.61 186.96,-366.97 193.21,-370.12"/>
</g>
<!-- SubLandscape&#45;&gt;DurationCheck -->
<g id="edge12" class="edge">
<title>SubLandscape-&gt;DurationCheck</title>
<path fill="none" stroke="black" d="M253.33,-398.85C248.73,-389.9 243.12,-378.96 237.57,-368.17"/>
<polygon fill="black" stroke="black" points="240.69,-366.57 233.01,-359.28 234.46,-369.77 240.69,-366.57"/>
</g>
<!-- AddDuration -->
<g id="node11" class="node">
<title>AddDuration</title>
<polygon fill="none" stroke="black" points="137.37,-226.23 0,-226.23 0,-184.63 137.37,-184.63 137.37,-226.23"/>
<text xml:space="preserve" text-anchor="middle" x="68.69" y="-209.63" font-family="Helvetica,sans-Serif" font-size="14.00">+20 Points</text>
<text xml:space="preserve" text-anchor="middle" x="68.69" y="-192.83" font-family="Helvetica,sans-Serif" font-size="14.00">(Extra Days Bonus)</text>
</g>
<!-- DurationCheck&#45;&gt;AddDuration -->
<g id="edge13" class="edge">
<title>DurationCheck-&gt;AddDuration</title>
<path fill="none" stroke="black" d="M173.3,-288.1C151.25,-270.89 124.24,-249.8 103.19,-233.37"/>
<polygon fill="black" stroke="black" points="105.5,-230.73 95.47,-227.34 101.19,-236.25 105.5,-230.73"/>
<text xml:space="preserve" text-anchor="middle" x="168.13" y="-248.43" font-family="Times,serif" font-size="14.00">Extra Days</text>
</g>
<!-- AddBaseDuration -->
<g id="node12" class="node">
<title>AddBaseDuration</title>
<polygon fill="none" stroke="black" points="272.26,-226.23 155.11,-226.23 155.11,-184.63 272.26,-184.63 272.26,-226.23"/>
<text xml:space="preserve" text-anchor="middle" x="213.69" y="-209.63" font-family="Helvetica,sans-Serif" font-size="14.00">+10 Points</text>
<text xml:space="preserve" text-anchor="middle" x="213.69" y="-192.83" font-family="Helvetica,sans-Serif" font-size="14.00">(Exact Duration)</text>
</g>
<!-- DurationCheck&#45;&gt;AddBaseDuration -->
<g id="edge14" class="edge">
<title>DurationCheck-&gt;AddBaseDuration</title>
<path fill="none" stroke="black" d="M213.69,-278.76C213.69,-265.33 213.69,-250.6 213.69,-237.97"/>
<polygon fill="black" stroke="black" points="217.19,-238.12 213.69,-228.12 210.19,-238.12 217.19,-238.12"/>
<text xml:space="preserve" text-anchor="middle" x="229.62" y="-248.43" font-family="Times,serif" font-size="14.00">Exact</text>
</g>
<!-- SubDuration -->
<g id="node13" class="node">
<title>SubDuration</title>
<polygon fill="none" stroke="black" points="377.09,-226.23 290.29,-226.23 290.29,-184.63 377.09,-184.63 377.09,-226.23"/>
<text xml:space="preserve" text-anchor="middle" x="333.69" y="-209.63" font-family="Helvetica,sans-Serif" font-size="14.00">-40 Points</text>
<text xml:space="preserve" text-anchor="middle" x="333.69" y="-192.83" font-family="Helvetica,sans-Serif" font-size="14.00">(Too Short)</text>
</g>
<!-- DurationCheck&#45;&gt;SubDuration -->
<g id="edge15" class="edge">
<title>DurationCheck-&gt;SubDuration</title>
<path fill="none" stroke="black" d="M248.4,-286.89C265.96,-270.32 287.07,-250.41 303.89,-234.54"/>
<polygon fill="black" stroke="black" points="306.28,-237.1 311.15,-227.69 301.48,-232.01 306.28,-237.1"/>
<text xml:space="preserve" text-anchor="middle" x="319.64" y="-248.43" font-family="Times,serif" font-size="14.00">Too Short</text>
</g>
<!-- FinalCheck -->
<g id="node14" class="node">
<title>FinalCheck</title>
<polygon fill="none" stroke="black" points="213.69,-147.63 94.46,-129.63 213.69,-111.63 332.92,-129.63 213.69,-147.63"/>
<text xml:space="preserve" text-anchor="middle" x="213.69" y="-125.43" font-family="Helvetica,sans-Serif" font-size="14.00">Final Score &gt; 0 ?</text>
</g>
<!-- AddDuration&#45;&gt;FinalCheck -->
<g id="edge16" class="edge">
<title>AddDuration-&gt;FinalCheck</title>
<path fill="none" stroke="black" d="M108.31,-184.27C129.83,-173.31 156.25,-159.86 177.25,-149.17"/>
<polygon fill="black" stroke="black" points="178.71,-152.36 186.04,-144.7 175.54,-146.12 178.71,-152.36"/>
</g>
<!-- AddBaseDuration&#45;&gt;FinalCheck -->
<g id="edge17" class="edge">
<title>AddBaseDuration-&gt;FinalCheck</title>
<path fill="none" stroke="black" d="M213.69,-184.27C213.69,-176.49 213.69,-167.46 213.69,-159.05"/>
<polygon fill="black" stroke="black" points="217.19,-159.28 213.69,-149.28 210.19,-159.28 217.19,-159.28"/>
</g>
<!-- SubDuration&#45;&gt;FinalCheck -->
<g id="edge18" class="edge">
<title>SubDuration-&gt;FinalCheck</title>
<path fill="none" stroke="black" d="M300.9,-184.27C283.72,-173.71 262.78,-160.83 245.72,-150.33"/>
<polygon fill="black" stroke="black" points="247.83,-147.52 237.48,-145.26 244.16,-153.48 247.83,-147.52"/>
</g>
<!-- Keep -->
<g id="node15" class="node">
<title>Keep</title>
<ellipse fill="none" stroke="black" cx="114.69" cy="-29.42" rx="86.71" ry="29.42"/>
<text xml:space="preserve" text-anchor="middle" x="114.69" y="-33.62" font-family="Helvetica,sans-Serif" font-size="14.00">Keep Destination</text>
<text xml:space="preserve" text-anchor="middle" x="114.69" y="-16.82" font-family="Helvetica,sans-Serif" font-size="14.00">For Ranking</text>
</g>
<!-- FinalCheck&#45;&gt;Keep -->
<g id="edge19" class="edge">
<title>FinalCheck-&gt;Keep</title>
<path fill="none" stroke="black" d="M198.65,-113.71C185.82,-100.99 166.86,-82.17 150.2,-65.65"/>
<polygon fill="black" stroke="black" points="152.88,-63.38 143.32,-58.82 147.95,-68.35 152.88,-63.38"/>
<text xml:space="preserve" text-anchor="middle" x="186.85" y="-81.03" font-family="Times,serif" font-size="14.00">Yes</text>
</g>
<!-- Discard -->
<g id="node16" class="node">
<title>Discard</title>
<ellipse fill="none" stroke="black" cx="313.69" cy="-29.42" rx="94.77" ry="18"/>
<text xml:space="preserve" text-anchor="middle" x="313.69" y="-25.22" font-family="Helvetica,sans-Serif" font-size="14.00">Discard Destination</text>
</g>
<!-- FinalCheck&#45;&gt;Discard -->
<g id="edge20" class="edge">
<title>FinalCheck-&gt;Discard</title>
<path fill="none" stroke="black" d="M228.87,-113.71C244.6,-98.26 269.46,-73.85 288.21,-55.44"/>
<polygon fill="black" stroke="black" points="290.57,-58.02 295.26,-48.52 285.67,-53.03 290.57,-58.02"/>
<text xml:space="preserve" text-anchor="middle" x="272.24" y="-81.03" font-family="Times,serif" font-size="14.00">No</text>
</g>
</g>
</svg>