<svg xmlns="http://www.w3.org/2000/svg" xmlns:xlink="http://www.w3.org/1999/xlink" width="1066pt" height="377pt" viewBox="0.00 0.00 1066.00 377.00">
<g id="graph0" class="graph" transform="scale(1 1) rotate(0) translate(4 373.34)">
<title>Level1_DFD</title>
<polygon fill="white" stroke="none" points="-4,4 -4,-373.34 1061.51,-373.34 1061.51,4 -4,4"/>
<text xml:space="preserve" text-anchor="middle" x="528.76" y="-349.14" font-family="Times,serif" font-size="18.00">Level 1 DFD – Travel Suggestion App</text>
<!-- User -->
<g id="node1" class="node">
<title>User</title>
<polygon fill="none" stroke="black" points="54,-167.19 0,-167.19 0,-131.19 54,-131.19 54,-167.19"/>
<text xml:space="preserve" text-anchor="middle" x="27" y="-144.99" font-family="Times,serif" font-size="14.00">USER</text>
</g>
<!-- P1 -->
<g id="node2" class="node">
<title>P1</title>
<ellipse fill="none" stroke="black" cx="283.87" cy="-251.19" rx="88.55" ry="88.55"/>
<text xml:space="preserve" text-anchor="middle" x="283.87" y="-255.39" font-family="Times,serif" font-size="14.00">1.0</text>
<text xml:space="preserve" text-anchor="middle" x="283.87" y="-238.59" font-family="Times,serif" font-size="14.00">Collect Preferences</text>
</g>
<!-- User&#45;&gt;P1 -->
<g id="edge1" class="edge">
<title>User-&gt;P1</title>
<path fill="none" stroke="black" d="M54.45,-152.16C120.63,-152.16 283.51,-152.16 283.51,-152.16 283.51,-152.16 283.51,-153.18 283.51,-153.18"/>
<polygon fill="black" stroke="black" points="280.01,-150.87 283.51,-160.87 287.01,-150.87 280.01,-150.87"/>
<text xml:space="preserve" text-anchor="middle" x="124.66" y="-212.39" font-family="Times,serif" font-size="14.00">Travel Preferences</text>
</g>
<!-- P2 -->
<g id="node3" class="node">
<title>P2</title>
<ellipse fill="none" stroke="black" cx="632.8" cy="-255.19" rx="83.64" ry="83.64"/>
<text xml:space="preserve" text-anchor="middle" x="632.8" y="-267.79" font-family="Times,serif" font-size="14.00">2.0</text>
<text xml:space="preserve" text-anchor="middle" x="632.8" y="-250.99" font-family="Times,serif" font-size="14.00">Apply Constraints</text>
<text xml:space="preserve" text-anchor="middle" x="632.8" y="-234.19" font-family="Times,serif" font-size="14.00">&amp; Scoring</text>
</g>
<!-- P1&#45;&gt;P2 -->
<g id="edge2" class="edge">
<title>P1-&gt;P2</title>
<path fill="none" stroke="black" d="M372.82,-255.19C372.82,-255.19 537.3,-255.19 537.3,-255.19"/>
<polygon fill="black" stroke="black" points="537.3,-258.69 547.3,-255.19 537.3,-251.69 537.3,-258.69"/>
</g>
<!-- P3 -->
<g id="node4" class="node">
<title>P3</title>
<ellipse fill="none" stroke="black" cx="934.32" cy="-123.19" rx="123.19" ry="123.19"/>
<text xml:space="preserve" text-anchor="middle" x="934.32" y="-127.39" font-family="Times,serif" font-size="14.00">3.0</text>
<text xml:space="preserve" text-anchor="middle" x="934.32" y="-110.59" font-family="Times,serif" font-size="14.00">Generate Recommendations</text>
</g>
<!-- P2&#45;&gt;P3 -->
<g id="edge5" class="edge">
<title>P2-&gt;P3</title>
<path fill="none" stroke="black" d="M702.74,-208.97C702.74,-208.97 833.77,-208.97 833.77,-208.97"/>
<polygon fill="black" stroke="black" points="833.77,-212.47 843.77,-208.97 833.77,-205.47 833.77,-212.47"/>
</g>
<!-- D1 -->
<g id="node5" class="node">
<title>D1</title>
<path fill="none" stroke="black" d="M989.56,-316.59C989.56,-319.46 964.8,-321.79 934.32,-321.79 903.85,-321.79 879.09,-319.46 879.09,-316.59 879.09,-316.59 879.09,-269.79 879.09,-269.79 879.09,-266.92 903.85,-264.59 934.32,-264.59 964.8,-264.59 989.56,-266.92 989.56,-269.79 989.56,-269.79 989.56,-316.59 989.56,-316.59"/>
<path fill="none" stroke="black" d="M989.56,-316.59C989.56,-313.72 964.8,-311.39 934.32,-311.39 903.85,-311.39 879.09,-313.72 879.09,-316.59"/>
<text xml:space="preserve" text-anchor="middle" x="934.32" y="-297.39" font-family="Times,serif" font-size="14.00">D1</text>
<text xml:space="preserve" text-anchor="middle" x="934.32" y="-280.59" font-family="Times,serif" font-size="14.00">Destination Data</text>
</g>
<!-- P2&#45;&gt;D1 -->
<g id="edge3" class="edge">
<title>P2-&gt;D1</title>
<path fill="none" stroke="black" d="M701.98,-302.72C701.98,-302.72 867.54,-302.72 867.54,-302.72"/>
<polygon fill="black" stroke="black" points="867.54,-306.22 877.54,-302.72 867.54,-299.22 867.54,-306.22"/>
<text xml:space="preserve" text-anchor="middle" x="763.79" y="-259.39" font-family="Times,serif" font-size="14.00">Read Data</text>
</g>
<!-- P3&#45;&gt;User -->
<g id="edge6" class="edge">
<title>P3-&gt;User</title>
<path fill="none" stroke="black" d="M812.43,-141.67C812.43,-141.67 65.8,-141.67 65.8,-141.67"/>
<polygon fill="black" stroke="black" points="65.8,-138.17 55.8,-141.67 65.8,-145.17 65.8,-138.17"/>
<text xml:space="preserve" text-anchor="middle" x="460.79" y="-137.39" font-family="Times,serif" font-size="14.00">Top 3 Recommendations</text>
</g>
<!-- D1&#45;&gt;P2 -->
<g id="edge4" class="edge">
<title>D1-&gt;P2</title>
<path fill="none" stroke="black" d="M878.67,-283.66C878.67,-283.66 723.22,-283.66 723.22,-283.66"/>
<polygon fill="black" stroke="black" points="723.22,-280.16 713.22,-283.66 723.22,-287.16 723.22,-280.16"/>
</g>
</g>
</svg>