<svg xmlns="http://www.w3.org/2000/svg" xmlns:xlink="http://www.w3.org/1999/xlink" width="437pt" height="196pt" viewBox="0.00 0.00 437.00 196.00">
<g id="graph0" class="graph" transform="scale(1 1) rotate(0) translate(4 192)">
<title>Level0_DFD</title>
<polygon fill="white" stroke="none" points="-4,4 -4,-192 433.18,-192 433.18,4 -4,4"/>
<text xml:space="preserve" text-anchor="middle" x="214.59" y="-167.8" font-family="Times,serif" font-size="18.00">Level 0 DFD – Travel Suggestion App</text>
<!-- User -->
<g id="node1" class="node">
<title>User</title>
<polygon fill="none" stroke="black" points="54,-97.2 0,-97.2 0,-61.2 54,-61.2 54,-97.2"/>
<text xml:space="preserve" text-anchor="middle" x="27" y="-75" font-family="Times,serif" font-size="14.00">USER</text>
</g>
<!-- System -->
<g id="node2" class="node">
<title>System</title>
<ellipse fill="none" stroke="black" cx="349.98" cy="-79.2" rx="79.2" ry="79.2"/>
<text xml:space="preserve" text-anchor="middle" x="349.98" y="-83.4" font-family="Times,serif" font-size="14.00">0</text>
<text xml:space="preserve" text-anchor="middle" x="349.98" y="-66.6" font-family="Times,serif" font-size="14.00">Travel Suggestion App</text>
</g>
<!-- User&#45;&gt;System -->
<g id="edge1" class="edge">
<title>User-&gt;System</title>
<path fill="none" stroke="black" d="M54.26,-73.2C54.26,-73.2 259.05,-73.2 259.05,-73.2"/>
<polygon fill="black" stroke="black" points="259.05,-76.7 269.05,-73.2 259.05,-69.7 259.05,-76.7"/>
<text xml:space="preserve" text-anchor="middle" x="162.39" y="-103.4" font-family="Times,serif" font-size="14.00">Travel Preferences</text>
</g>
<!-- System&#45;&gt;User -->
<g id="edge2" class="edge">
<title>System-&gt;User</title>
<path fill="none" stroke="black" d="M270.56,-85.2C270.56,-85.2 65.7,-85.2 65.7,-85.2"/>
<polygon fill="black" stroke="black" points="65.7,-81.7 55.7,-85.2 65.7,-88.7 65.7,-81.7"/>
<text xml:space="preserve" text-anchor="middle" x="162.39" y="-63.4" font-family="Times,serif" font-size="14.00">Top 3 Travel Recommendations</text>
</g>
</g>
</svg>